<svg width="70" height="70" viewBox="0 0 70 70" fill="none" xmlns="http://www.w3.org/2000/svg">
<rect width="70" height="70" fill="white"/>
<path d="M33.8952 23.9515L37.7622 20.0845C38.56 19.2859 39.5074 18.6523 40.5502 18.2199C41.593 17.7875 42.7108 17.5649 43.8397 17.5646C44.9686 17.5643 46.0864 17.7865 47.1294 18.2184C48.1725 18.6503 49.1201 19.2834 49.9184 20.0817C50.7166 20.8799 51.3498 21.8276 51.7817 22.8706C52.2135 23.9136 52.4357 25.0315 52.4354 26.1604C52.4352 27.2892 52.2125 28.407 51.7801 29.4498C51.3478 30.4926 50.7142 31.44 49.9156 32.2379L44.3913 37.7622C43.5933 38.5602 42.6459 39.1932 41.6033 39.625C40.5606 40.0569 39.4431 40.2792 38.3146 40.2792C37.186 40.2792 36.0685 40.0569 35.0259 39.625C33.9833 39.1932 33.0359 38.5602 32.2379 37.7622" stroke="black" stroke-width="2" stroke-linecap="round" stroke-linejoin="round"/>
<path d="M36.1049 46.0485L32.2379 49.9155C31.44 50.7141 30.4926 51.3477 29.4498 51.7801C28.407 52.2125 27.2892 52.4351 26.1604 52.4354C25.0315 52.4357 23.9136 52.2135 22.8706 51.7816C21.8276 51.3497 20.8799 50.7166 20.0817 49.9183C19.2834 49.1201 18.6503 48.1724 18.2184 47.1294C17.7865 46.0864 17.5643 44.9685 17.5646 43.8396C17.5649 42.7108 17.7875 41.593 18.2199 40.5502C18.6523 39.5074 19.2859 38.56 20.0845 37.7621L25.6088 32.2378C26.4068 31.4398 27.3541 30.8068 28.3968 30.375C29.4394 29.9431 30.5569 29.7208 31.6855 29.7208C32.814 29.7208 33.9315 29.9431 34.9741 30.375C36.0168 30.8068 36.9642 31.4398 37.7622 32.2378" stroke="black" stroke-width="2" stroke-linecap="round" stroke-linejoin="round"/>
</svg>
