<svg width="70" height="70" viewBox="0 0 70 70" fill="none" xmlns="http://www.w3.org/2000/svg">
<rect width="70" height="70" fill="white"/>
<rect x="11" y="26" width="48" height="18" rx="1" stroke="black" stroke-width="2"/>
<path d="M41.8884 37.633L46.176 50.0194C46.2164 50.136 46.2926 50.2369 46.3938 50.3077C46.495 50.3784 46.6159 50.4153 46.7393 50.4131C46.8627 50.411 46.9823 50.3699 47.0809 50.2957C47.1796 50.2215 47.2522 50.118 47.2885 50.0001L49.0119 44.3992C49.04 44.3079 49.0899 44.2249 49.1574 44.1574C49.2249 44.0899 49.3079 44.04 49.3992 44.0119L55.0001 42.2885C55.118 42.2522 55.2215 42.1796 55.2957 42.0809C55.3699 41.9823 55.411 41.8627 55.4131 41.7393C55.4153 41.6159 55.3784 41.495 55.3076 41.3938C55.2369 41.2926 55.136 41.2164 55.0194 41.176L42.633 36.8884C42.5292 36.8525 42.4174 36.8465 42.3103 36.8711C42.2033 36.8957 42.1053 36.95 42.0277 37.0277C41.95 37.1053 41.8957 37.2033 41.8711 37.3103C41.8465 37.4174 41.8525 37.5292 41.8884 37.633Z" fill="white" stroke="black" stroke-width="2" stroke-linecap="round" stroke-linejoin="round"/>
</svg>
