<svg width="70" height="70" viewBox="0 0 70 70" fill="none" xmlns="http://www.w3.org/2000/svg">
<rect width="70" height="70" fill="white"/>
<path d="M23.9375 50.625L23.9375 19.375C23.9375 18.5121 23.2379 17.8125 22.375 17.8125H14.5625C13.6996 17.8125 13 18.5121 13 19.375L13 50.625C13 51.4879 13.6996 52.1875 14.5625 52.1875H22.375C23.2379 52.1875 23.9375 51.4879 23.9375 50.625Z" stroke="#070707" stroke-width="2" stroke-linecap="round" stroke-linejoin="round"/>
<path opacity="0.25" d="M41.125 50.625V19.375C41.125 18.5121 40.4254 17.8125 39.5625 17.8125H31.75C30.8871 17.8125 30.1875 18.5121 30.1875 19.375V50.625C30.1875 51.4879 30.8871 52.1875 31.75 52.1875H39.5625C40.4254 52.1875 41.125 51.4879 41.125 50.625Z" stroke="black" stroke-width="2" stroke-linecap="round" stroke-linejoin="round"/>
<path opacity="0.25" d="M57.9375 50.625V19.375C57.9375 18.5121 57.2379 17.8125 56.375 17.8125H48.5625C47.6996 17.8125 47 18.5121 47 19.375V50.625C47 51.4879 47.6996 52.1875 48.5625 52.1875H56.375C57.2379 52.1875 57.9375 51.4879 57.9375 50.625Z" stroke="black" stroke-width="2" stroke-linecap="round" stroke-linejoin="round"/>
</svg>
