<svg width="70" height="70" viewBox="0 0 70 70" fill="none" xmlns="http://www.w3.org/2000/svg">
<rect width="70" height="70" fill="white"/>
<path d="M53.75 44.633V25.3669C53.75 25.0897 53.6762 24.8174 53.5363 24.5781C53.3963 24.3388 53.1952 24.141 52.9535 24.0051L35.766 14.3371C35.5322 14.2056 35.2683 14.1365 35 14.1365C34.7317 14.1365 34.4678 14.2056 34.234 14.3371L17.0465 24.0051C16.8048 24.141 16.6037 24.3388 16.4637 24.5781C16.3238 24.8174 16.25 25.0897 16.25 25.3669V44.633C16.25 44.9103 16.3238 45.1825 16.4637 45.4219C16.6037 45.6612 16.8048 45.859 17.0465 45.9949L34.234 55.6628C34.4678 55.7944 34.7317 55.8635 35 55.8635C35.2683 55.8635 35.5322 55.7944 35.766 55.6628L52.9535 45.9949C53.1952 45.859 53.3963 45.6612 53.5363 45.4219C53.6762 45.1825 53.75 44.9103 53.75 44.633Z" stroke="black" stroke-width="2" stroke-linecap="round" stroke-linejoin="round"/>
<path d="M44.5746 39.7873V29.6311L25.625 19.1797" stroke="black" stroke-width="2" stroke-linecap="round" stroke-linejoin="round"/>
<path d="M53.5346 24.5756L35.1854 35L16.4664 24.5736" stroke="black" stroke-width="2" stroke-linecap="round" stroke-linejoin="round"/>
<path d="M35.1854 35L35.002 55.8635" stroke="black" stroke-width="2" stroke-linecap="round" stroke-linejoin="round"/>
</svg>
