<svg width="70" height="70" viewBox="0 0 70 70" fill="none" xmlns="http://www.w3.org/2000/svg">
<rect width="70" height="70" fill="white"/>
<path d="M24 26V41" stroke="black" stroke-width="2" stroke-linecap="round" stroke-linejoin="round"/>
<path d="M37 33.5H24" stroke="black" stroke-width="2" stroke-linecap="round" stroke-linejoin="round"/>
<path d="M37 26V41" stroke="black" stroke-width="2" stroke-linecap="round" stroke-linejoin="round"/>
<path d="M42.9996 32.499H48.9996L45.5004 37.5C46.076 37.5 46.6427 37.642 47.1503 37.9133C47.6579 38.1846 48.0908 38.5769 48.4105 39.0555C48.7303 39.5341 48.9271 40.0841 48.9835 40.6569C49.04 41.2298 48.9542 41.8076 48.734 42.3394C48.5137 42.8712 48.1657 43.3404 47.7208 43.7055C47.2758 44.0707 46.7477 44.3205 46.1832 44.4328C45.6187 44.545 45.0352 44.5164 44.4844 44.3493C43.9336 44.1822 43.4325 43.8819 43.0255 43.4749" stroke="black" stroke-width="2" stroke-linecap="round" stroke-linejoin="round"/>
</svg>
