<svg width="70" height="70" viewBox="0 0 70 70" fill="none" xmlns="http://www.w3.org/2000/svg">
<rect width="70" height="70" fill="white"/>
<path d="M50.625 17.8125H19.375C18.5121 17.8125 17.8125 18.5121 17.8125 19.375V50.625C17.8125 51.4879 18.5121 52.1875 19.375 52.1875H50.625C51.4879 52.1875 52.1875 51.4879 52.1875 50.625V19.375C52.1875 18.5121 51.4879 17.8125 50.625 17.8125Z" stroke="black" stroke-width="2" stroke-linecap="round" stroke-linejoin="round"/>
<path d="M52.1875 41.25L43.9173 32.9799C43.6243 32.6868 43.2269 32.5222 42.8125 32.5222C42.3981 32.5222 42.0007 32.6868 41.7076 32.9799L32.9798 41.7077C32.6868 42.0007 32.2894 42.1653 31.875 42.1653C31.4606 42.1653 31.0632 42.0007 30.7701 41.7077L26.7298 37.6674C26.4368 37.3743 26.0394 37.2097 25.625 37.2097C25.2106 37.2097 24.8132 37.3743 24.5201 37.6674L17.8125 44.375" stroke="black" stroke-width="2" stroke-linecap="round" stroke-linejoin="round"/>
<path d="M29.5312 30.3125C30.8257 30.3125 31.875 29.2632 31.875 27.9688C31.875 26.6743 30.8257 25.625 29.5312 25.625C28.2368 25.625 27.1875 26.6743 27.1875 27.9688C27.1875 29.2632 28.2368 30.3125 29.5312 30.3125Z" fill="black"/>
</svg>
