<svg width="70" height="70" viewBox="0 0 70 70" fill="none" xmlns="http://www.w3.org/2000/svg">
<rect width="70" height="70" fill="white"/>
<path d="M30.682 24.4892L7.42669 24.3696C6.84289 24.3666 6.36719 24.8374 6.36419 25.4212L6.26628 44.4483C6.26328 45.0321 6.73411 45.5078 7.3179 45.5108L30.5732 45.6304C31.157 45.6334 31.6327 45.1626 31.6357 44.5788L31.7336 25.5517C31.7367 24.9679 31.2658 24.4922 30.682 24.4892Z" stroke="black" stroke-width="2" stroke-linecap="round" stroke-linejoin="round"/>
<path d="M6.32123 33.7781L13.0074 27.1603C13.1061 27.0627 13.223 26.9854 13.3515 26.933C13.48 26.8805 13.6176 26.8539 13.7565 26.8546C13.8953 26.8553 14.0326 26.8833 14.1606 26.9371C14.2885 26.9909 14.4047 27.0694 14.5023 27.168L20.3765 33.1029C20.4741 33.2016 20.5902 33.2801 20.7182 33.3338C20.8462 33.3876 20.9835 33.4157 21.1223 33.4164C21.2611 33.4171 21.3987 33.3905 21.5273 33.338C21.6558 33.2855 21.7727 33.2083 21.8714 33.1106L24.6188 30.3914C24.7174 30.2937 24.8344 30.2164 24.9629 30.164C25.0914 30.1115 25.229 30.0849 25.3678 30.0856C25.5066 30.0863 25.6439 30.1144 25.7719 30.1681C25.8999 30.2219 26.016 30.3004 26.1137 30.399L31.6798 36.0228" stroke="black" stroke-width="2" stroke-linecap="round" stroke-linejoin="round"/>
<path d="M22.7321 28.719C23.6078 28.7235 24.3214 28.0172 24.3259 27.1415C24.3304 26.2658 23.6241 25.5523 22.7484 25.5478C21.8727 25.5433 21.1592 26.2495 21.1547 27.1252C21.1502 28.0009 21.8564 28.7145 22.7321 28.719Z" fill="black"/>
<rect x="8.17554" y="35.6765" width="12.854" height="3.38264" rx="1.69132" fill="black"/>
<rect x="8.17554" y="40.4122" width="20.2958" height="1.35306" rx="0.676528" fill="black"/>
<rect x="8.17554" y="42.4418" width="20.2958" height="1.35306" rx="0.676528" fill="black"/>
<path d="M62.682 24.4892L39.4267 24.3696C38.8429 24.3666 38.3672 24.8374 38.3642 25.4212L38.2663 44.4483C38.2633 45.0321 38.7341 45.5078 39.3179 45.5108L62.5732 45.6304C63.157 45.6334 63.6327 45.1626 63.6357 44.5788L63.7336 25.5517C63.7367 24.9679 63.2658 24.4922 62.682 24.4892Z" stroke="black" stroke-width="2" stroke-linecap="round" stroke-linejoin="round"/>
<path d="M38.3212 33.7781L45.0074 27.1603C45.1061 27.0627 45.223 26.9854 45.3515 26.933C45.48 26.8805 45.6176 26.8539 45.7565 26.8546C45.8953 26.8553 46.0326 26.8833 46.1606 26.9371C46.2885 26.9909 46.4047 27.0694 46.5023 27.168L52.3765 33.1029C52.4741 33.2016 52.5902 33.2801 52.7182 33.3338C52.8462 33.3876 52.9835 33.4157 53.1223 33.4164C53.2611 33.4171 53.3987 33.3905 53.5273 33.338C53.6558 33.2855 53.7727 33.2083 53.8714 33.1106L56.6188 30.3914C56.7174 30.2937 56.8344 30.2164 56.9629 30.164C57.0914 30.1115 57.229 30.0849 57.3678 30.0856C57.5066 30.0863 57.6439 30.1144 57.7719 30.1681C57.8999 30.2219 58.016 30.3004 58.1137 30.399L63.6798 36.0228" stroke="black" stroke-width="2" stroke-linecap="round" stroke-linejoin="round"/>
<path d="M54.7321 28.719C55.6078 28.7235 56.3214 28.0172 56.3259 27.1415C56.3304 26.2658 55.6242 25.5523 54.7485 25.5478C53.8728 25.5433 53.1592 26.2495 53.1547 27.1252C53.1502 28.0009 53.8564 28.7145 54.7321 28.719Z" fill="black"/>
<rect x="40.1755" y="35.6765" width="12.854" height="3.38264" rx="1.69132" fill="black"/>
<rect x="40.1755" y="40.4122" width="20.2958" height="1.35306" rx="0.676528" fill="black"/>
<rect x="40.1755" y="42.4418" width="20.2958" height="1.35306" rx="0.676528" fill="black"/>
</svg>
