<svg width="70" height="70" viewBox="0 0 70 70" fill="none" xmlns="http://www.w3.org/2000/svg">
<rect width="70" height="70" fill="white"/>
<path d="M52.3959 19.592L18.0214 19.4151C17.1585 19.4106 16.4553 20.1066 16.4509 20.9695L16.3062 49.0941C16.3017 49.9571 16.9977 50.6602 17.8606 50.6647L52.2351 50.8415C53.0981 50.846 53.8012 50.15 53.8057 49.2871L53.9504 21.1625C53.9548 20.2995 53.2589 19.5964 52.3959 19.592Z" stroke="black" stroke-width="2" stroke-linecap="round" stroke-linejoin="round"/>
<path d="M16.3874 33.3221L26.2704 23.5402C26.4163 23.3959 26.5891 23.2817 26.7791 23.2041C26.9691 23.1266 27.1724 23.0872 27.3776 23.0883C27.5828 23.0893 27.7858 23.1308 27.975 23.2103C28.1641 23.2898 28.3358 23.4058 28.4801 23.5516L37.1629 32.3242C37.3072 32.47 37.4789 32.586 37.668 32.6655C37.8572 32.745 38.0602 32.7865 38.2654 32.7875C38.4706 32.7886 38.6739 32.7492 38.8639 32.6716C39.0539 32.5941 39.2267 32.4799 39.3726 32.3356L43.4336 28.3161C43.5794 28.1718 43.7523 28.0576 43.9422 27.98C44.1322 27.9025 44.3356 27.8631 44.5408 27.8641C44.746 27.8652 44.9489 27.9067 45.1381 27.9862C45.3273 28.0657 45.4989 28.1816 45.6433 28.3275L53.8707 36.6401" stroke="black" stroke-width="2" stroke-linecap="round" stroke-linejoin="round"/>
<path d="M40.6449 25.8441C41.9393 25.8507 42.994 24.8068 43.0007 23.5124C43.0074 22.218 41.9634 21.1633 40.669 21.1566C39.3746 21.15 38.3199 22.1939 38.3133 23.4883C38.3066 24.7827 39.3505 25.8374 40.6449 25.8441Z" fill="black"/>
<rect x="19.1283" y="36.1283" width="19" height="5" rx="2" fill="black"/>
<rect x="19.1283" y="43.1283" width="30" height="2" rx="1" fill="black"/>
<rect x="19.1283" y="46.1283" width="30" height="2" rx="1" fill="black"/>
</svg>
