<svg width="70" height="70" viewBox="0 0 70 70" fill="none" xmlns="http://www.w3.org/2000/svg">
<rect width="70" height="70" fill="white"/>
<path d="M46 25H24C23.4477 25 23 25.4477 23 26V44C23 44.5523 23.4477 45 24 45H46C46.5523 45 47 44.5523 47 44V26C47 25.4477 46.5523 25 46 25Z" stroke="black" stroke-width="2" stroke-linecap="round" stroke-linejoin="round"/>
<path d="M23 40L29.2929 33.7071C29.3857 33.6142 29.496 33.5406 29.6173 33.4903C29.7386 33.4401 29.8687 33.4142 30 33.4142C30.1313 33.4142 30.2613 33.4401 30.3827 33.4903C30.504 33.5406 30.6142 33.6142 30.7071 33.7071L36.2929 39.2929C36.3857 39.3858 36.496 39.4594 36.6173 39.5097C36.7386 39.5599 36.8687 39.5858 37 39.5858C37.1313 39.5858 37.2613 39.5599 37.3827 39.5097C37.504 39.4594 37.6142 39.3858 37.7071 39.2929L40.2929 36.7071C40.3857 36.6142 40.496 36.5406 40.6173 36.4903C40.7386 36.4401 40.8687 36.4142 41 36.4142C41.1313 36.4142 41.2613 36.4401 41.3827 36.4903C41.504 36.5406 41.6142 36.6142 41.7071 36.7071L47 42" stroke="black" stroke-width="2" stroke-linecap="round" stroke-linejoin="round"/>
<path d="M38.5 33C39.3284 33 40 32.3284 40 31.5C40 30.6716 39.3284 30 38.5 30C37.6716 30 37 30.6716 37 31.5C37 32.3284 37.6716 33 38.5 33Z" fill="black"/>
<path d="M12.5 41.875C16.0208 41.875 18.875 39.0208 18.875 35.5C18.875 31.9792 16.0208 29.125 12.5 29.125C8.97918 29.125 6.125 31.9792 6.125 35.5C6.125 39.0208 8.97918 41.875 12.5 41.875Z" stroke="black" stroke-width="2" stroke-miterlimit="10"/>
<path d="M13.5625 33.1094L10.9062 35.5L13.5625 37.8906" stroke="black" stroke-width="2" stroke-linecap="round" stroke-linejoin="round"/>
<path d="M57.5 41.875C61.0208 41.875 63.875 39.0208 63.875 35.5C63.875 31.9792 61.0208 29.125 57.5 29.125C53.9792 29.125 51.125 31.9792 51.125 35.5C51.125 39.0208 53.9792 41.875 57.5 41.875Z" stroke="black" stroke-width="2" stroke-miterlimit="10"/>
<path d="M56.7031 33.1094L59.3594 35.5L56.7031 37.8906" stroke="black" stroke-width="2" stroke-linecap="round" stroke-linejoin="round"/>
</svg>
